<svg aria-hidden="true" style="position: absolute; width: 0; height: 0; overflow: hidden;" version="1.1" xmlns="http://www.w3.org/2000/svg" xmlns:xlink="http://www.w3.org/1999/xlink">
<defs>
  <symbol id="draft2digital-icon" viewBox="0 0 480 512">
    <path fill="currentColor" d="M480 398.1l-144-82.2v64.7h-91.3c30.8-35 81.8-95.9 111.8-149.3 35.2-62.6 16.1-123.4-12.8-153.3-4.4-4.6-62.2-62.9-166-41.2-59.1 12.4-89.4 43.4-104.3 67.3-13.1 20.9-17 39.8-18.2 47.7-5.5 33 19.4 67.1 56.7 67.1 31.7 0 57.3-25.7 57.3-57.4 0-27.1-19.7-52.1-48-56.8 1.8-7.3 17.7-21.1 26.3-24.7 41.1-17.3 78 5.2 83.3 33.5 8.3 44.3-37.1 90.4-69.7 127.6C84.5 328.1 18.3 396.8 0 415.9l336-.1V480zM369.9 371l47.1 27.2-47.1 27.2zM134.2 161.4c0 12.4-10 22.4-22.4 22.4s-22.4-10-22.4-22.4 10-22.4 22.4-22.4 22.4 10.1 22.4 22.4zM82.5 380.5c25.6-27.4 97.7-104.7 150.8-169.9 35.1-43.1 40.3-82.4 28.4-112.7-7.4-18.8-17.5-30.2-24.3-35.7 45.3 2.1 68 23.4 82.2 38.3 0 0 42.4 48.2 5.8 113.3-37 65.9-110.9 147.5-128.5 166.7z"></path>
  </symbol>
 <symbol id="uncharted-icon" viewBox="0 0 448 512">
    <path fill="currentColor" d="M171.73,232.813A5.381,5.381,0,0,0,176.7,229.5,48.081,48.081,0,0,1,191.6,204.244c1.243-.828,1.657-2.484,1.657-4.141a4.22,4.22,0,0,0-2.071-3.312L74.429,128.473,148.958,85a9.941,9.941,0,0,0,4.968-8.281,9.108,9.108,0,0,0-4.968-8.281L126.6,55.6a9.748,9.748,0,0,0-9.523,0l-100.2,57.966a9.943,9.943,0,0,0-4.969,8.281V236.954a9.109,9.109,0,0,0,4.969,8.281L39.235,258.07a8.829,8.829,0,0,0,4.968,1.242,9.4,9.4,0,0,0,6.625-2.484,10.8,10.8,0,0,0,2.9-7.039V164.5L169.66,232.4A4.5,4.5,0,0,0,171.73,232.813ZM323.272,377.73a12.478,12.478,0,0,0-4.969,1.242l-74.528,43.062V287.882c0-2.9-2.9-5.8-6.211-4.555a53.036,53.036,0,0,1-28.984.414,4.86,4.86,0,0,0-6.21,4.555V421.619l-74.529-43.061a8.83,8.83,0,0,0-4.969-1.242,9.631,9.631,0,0,0-9.523,9.523v26.085a9.107,9.107,0,0,0,4.969,8.281l100.2,57.553A8.829,8.829,0,0,0,223.486,480a11.027,11.027,0,0,0,4.969-1.242l100.2-57.553a9.941,9.941,0,0,0,4.968-8.281V386.839C332.8,382.285,328.24,377.73,323.272,377.73ZM286.007,78a23,23,0,1,0-23-23A23,23,0,0,0,286.007,78Zm63.627-10.086a23,23,0,1,0,23,23A23,23,0,0,0,349.634,67.914ZM412.816,151.6a23,23,0,1,0-23-23A23,23,0,0,0,412.816,151.6Zm-63.182-9.2a23,23,0,1,0,23,23A23,23,0,0,0,349.634,142.4Zm-63.627,83.244a23,23,0,1,0-23-23A23,23,0,0,0,286.007,225.648Zm-62.074,36.358a23,23,0,1,0-23-23A23,23,0,0,0,223.933,262.006Zm188.883-82.358a23,23,0,1,0,23,23A23,23,0,0,0,412.816,179.648Zm0,72.272a23,23,0,1,0,23,23A23,23,0,0,0,412.816,251.92Z"
    ></path>
  </symbol>
    <symbol id="concierge-bell-icon" viewBox="0 0 512 512">
    <path fill="currentColor" d="M288 130.54V112h16c8.84 0 16-7.16 16-16V80c0-8.84-7.16-16-16-16h-96c-8.84 0-16 7.16 16 16v16c0 8.84 7.16 16 16 16h16v18.54C115.49 146.11 32 239.18 32 352h448c0-112.82-83.49-205.89-192-221.46zM496 384H16c-8.84 0-16 7.16-16 16v32c0 8.84 7.16 16 16 16h480c8.84 0 16-7.16 16-16v-32c0-8.84-7.16-16-16-16z"></path>
  </symbol>
</defs>
</svg>
